<svg width="133" height="30" viewBox="0 0 133 30" fill="none" xmlns="http://www.w3.org/2000/svg">
<g clip-path="url(#clip0_39985_286147)">
<path d="M56.7546 14.5342C57.5564 14.2191 58.2443 13.663 58.7264 12.9401C59.2084 12.2172 59.4617 11.3621 59.4521 10.4892C59.4521 6.84817 56.9099 5.04492 53.4167 5.04492H44.252V24.8561H54.2172C57.2835 24.8561 60.2866 22.6784 60.2866 19.3478C60.2769 15.3767 56.7546 14.5736 56.7546 14.5342ZM49.0308 9.14904H52.5871C53.0463 9.12072 53.4979 9.27862 53.8426 9.58807C54.1874 9.89751 54.3971 10.3332 54.4258 10.7996V10.7996C54.4258 10.8685 54.4258 10.9408 54.4258 11.0163C54.4156 11.5029 54.2168 11.9658 53.8725 12.3043C53.5282 12.6429 53.0663 12.8298 52.5871 12.8245H49.0017L49.0308 9.14904ZM52.6162 20.6928H49.0599V16.8006H52.524C54.2706 16.8006 55.1002 17.579 55.1002 18.7319C55.1002 20.1755 54.0571 20.6977 52.6162 20.6977V20.6928Z" fill="#ED0007"/>
<path d="M70.8195 4.54688C65.1819 4.54688 61.873 9.12398 61.873 14.8934C61.873 20.6628 65.1819 25.2399 70.8195 25.2399C76.4571 25.2399 79.7659 20.6973 79.7659 14.8934C79.7659 9.08949 76.491 4.54688 70.8195 4.54688ZM70.8195 20.5446C68.0637 20.5446 66.681 18.022 66.681 14.9131C66.681 11.8042 68.0589 9.31121 70.8195 9.31121C73.58 9.31121 74.987 11.8338 74.987 14.9131C74.987 17.9924 73.58 20.5396 70.8195 20.5396V20.5446Z" fill="#ED0007"/>
<path d="M90.1585 12.8243L89.4841 12.6666C87.8297 12.3267 86.51 11.8882 86.51 10.6959C86.51 9.39022 87.7666 8.85811 88.8679 8.85811C89.6206 8.86976 90.3629 9.03898 91.0482 9.35519C91.7336 9.6714 92.3474 10.1278 92.8511 10.6959L95.8834 7.64609C94.9975 6.62765 93.9011 5.82046 92.6724 5.28219C91.4437 4.74392 90.1132 4.48785 88.7757 4.53228C84.6713 4.53228 81.542 6.86764 81.542 10.755C81.542 14.3024 84.0551 16.0465 87.1214 16.6968L87.7957 16.8545C90.338 17.3817 91.2889 17.7857 91.2889 19.0322C91.2889 20.2787 90.2458 21.003 88.6545 21.003C87.6923 21.0019 86.7439 20.7702 85.8865 20.3268C85.0291 19.8833 84.287 19.2405 83.7203 18.4508L80.625 21.5646C82.3425 23.6487 84.5063 25.2697 88.7175 25.2697C92.366 25.2697 96.257 23.1511 96.257 18.8302C96.3152 14.2876 92.9482 13.4155 90.1585 12.8243Z" fill="#ED0007"/>
<path d="M107.163 20.5395C105.019 20.5395 102.797 18.7362 102.797 14.7799C102.797 11.2621 104.883 9.30117 107.056 9.30117C108.774 9.30117 109.783 10.1092 110.579 11.5084L114.499 8.86268C112.558 5.84248 110.21 4.56641 106.989 4.56641C101.104 4.56641 97.916 9.20264 97.916 14.8045C97.916 20.6873 101.438 25.294 106.926 25.294C110.807 25.294 112.626 23.9243 114.615 20.9977L110.661 18.2977C109.861 19.6083 109.002 20.5395 107.163 20.5395Z" fill="#ED0007"/>
<path d="M127.574 5.04102V12.323H121.659V5.04102H116.541V24.8374H121.659V17.0233H127.574V24.8374H132.692V5.04102H127.574Z" fill="#ED0007"/>
<path d="M14.7722 8.0939e-07C11.8502 -0.000973712 8.99342 0.878079 6.56334 2.52598C4.13325 4.17388 2.23897 6.51661 1.12008 9.25786C0.00118239 11.9991 -0.292058 15.0158 0.277423 17.9263C0.846903 20.8368 2.25353 23.5105 4.31941 25.6091C6.38529 27.7077 9.01762 29.137 11.8835 29.7163C14.7493 30.2956 17.72 29.9988 20.4197 28.8634C23.1195 27.7281 25.427 25.8051 27.0506 23.3379C28.6741 20.8707 29.5406 17.9699 29.5406 15.0025C29.5406 11.0236 27.9842 7.20763 25.2136 4.39413C22.4431 1.58062 18.6855 8.0939e-07 14.7674 8.0939e-07H14.7722ZM14.7722 28.5761C12.1228 28.5761 9.53293 27.778 7.33035 26.2827C5.12776 24.7874 3.41148 22.6622 2.3987 20.176C1.38592 17.6898 1.12216 14.9543 1.64081 12.3159C2.15945 9.67738 3.43719 7.25445 5.31232 5.35368C7.18744 3.45291 9.57567 2.15974 12.1748 1.63783C14.7739 1.11592 17.467 1.38873 19.9134 2.42173C22.3598 3.45474 24.4494 5.20149 25.9178 7.44096C27.3863 9.68042 28.1675 12.3119 28.1628 15.0025C28.1628 18.609 26.752 22.0678 24.2408 24.6179C21.7296 27.1681 18.3236 28.6007 14.7722 28.6007V28.5761Z" fill="white"/>
<path d="M20.8669 5.64062H19.8577V10.7745H9.71294V5.64062H8.66984C7.1466 6.66376 5.89677 8.05427 5.03209 9.68785C4.16741 11.3214 3.71484 13.1471 3.71484 15.0018C3.71484 16.8564 4.16741 18.6821 5.03209 20.3157C5.89677 21.9493 7.1466 23.3398 8.66984 24.3629H9.71294V19.2389H19.8577V24.3629H20.8669C22.3911 23.3406 23.642 21.9503 24.5074 20.3166C25.3728 18.683 25.8258 16.8568 25.8258 15.0018C25.8258 13.1467 25.3728 11.3206 24.5074 9.6869C23.642 8.05322 22.3911 6.66298 20.8669 5.64062ZM8.30111 22.3577C6.38725 20.6224 5.22806 18.1879 5.07713 15.5869C4.9262 12.9859 5.79583 10.4301 7.49576 8.47853V8.47853C7.74877 8.19222 8.01765 7.92079 8.30111 7.66558V22.3577ZM19.8529 17.815H9.71294V12.1688H19.8577L19.8529 17.815ZM21.2307 22.3281V19.2143V10.7695V7.65573C23.1437 9.4015 24.2959 11.8471 24.4341 14.4551C24.5724 17.0631 23.6855 19.6202 21.9682 21.5644V21.5644C21.7364 21.8247 21.4919 22.073 21.2356 22.3084L21.2307 22.3281Z" fill="white"/>
</g>
<defs>
<clipPath id="clip0_39985_286147">
<rect width="132.692" height="30" fill="white"/>
</clipPath>
</defs>
</svg>
