<svg width="101" height="100" viewBox="0 0 101 100" fill="none" xmlns="http://www.w3.org/2000/svg">
<path fill-rule="evenodd" clip-rule="evenodd" d="M5.48751 59.0722H100C100.552 59.0722 101 58.6245 101 58.0722V18.4401C101 17.8842 100.532 17.435 99.9761 17.4415C49.6651 18.03 28.236 26.8695 4.70527 57.4654C4.20234 58.1193 4.66254 59.0722 5.48751 59.0722ZM47.2806 46.5136H90.7125C91.2648 46.5136 91.7125 46.0659 91.7125 45.5136V27.6938C91.7125 27.1378 91.2488 26.6885 90.6929 26.6964C67.5705 27.0264 57.3759 31.1246 46.5007 44.9226C45.9901 45.5705 46.4556 46.5136 47.2806 46.5136Z" fill="white"/>
<path fill-rule="evenodd" clip-rule="evenodd" d="M5.30116 61.7168H99.2795C100.227 61.7168 100.995 62.5502 100.996 63.5779V72.3943C100.996 73.4223 100.227 74.2555 99.2797 74.2555H2.5482C1.37362 74.2555 0.546283 73.0039 0.923074 71.7971L3.67603 62.9807C3.91196 62.2253 4.56577 61.7168 5.30116 61.7168Z" fill="#19958A"/>
</svg>
