<svg width="120" height="120" viewBox="0 0 120 120" fill="none" xmlns="http://www.w3.org/2000/svg">
<path d="M48.473 60.964C49.5386 61.5657 50.7398 61.8816 51.9614 61.8816C53.1831 61.8816 54.3843 61.5657 55.4499 60.964C57.1017 60.0742 58.9422 59.5994 60.8152 59.5796C62.6881 59.5599 64.5381 59.9959 66.208 60.8506C64.9383 58.118 62.9217 55.8066 60.3945 54.1873C57.8672 52.5681 54.9341 51.708 51.9389 51.708C48.9438 51.708 46.0106 52.5681 43.4834 54.1873C40.9562 55.8066 38.9395 58.118 37.6699 60.8506C39.3466 59.9919 41.2044 59.5539 43.0852 59.5736C44.9661 59.5933 46.8144 60.0703 48.473 60.964Z" fill="white"/>
<path d="M74.9872 76.5843C77.0261 71.323 77.2315 65.5203 75.5698 60.1261C73.9082 54.7318 70.4779 50.0655 65.8405 46.8909C61.203 43.7162 55.6331 42.2213 50.0423 42.6509C44.4515 43.0804 39.171 45.4088 35.0652 49.2552C30.9593 53.1015 28.2712 58.2379 27.441 63.8236C26.6107 69.4093 27.6873 75.1135 30.4947 80.0025C33.3021 84.8915 37.6739 88.6758 42.8946 90.736C48.1153 92.7961 53.8756 93.0101 59.2328 91.343C58.7398 89.8864 58.5708 88.3385 58.7377 86.8088C54.314 88.4237 49.4702 88.4369 45.0379 86.8462C40.6056 85.2555 36.8614 82.1601 34.448 78.0915C32.0345 74.0229 31.1026 69.2349 31.812 64.5495C32.5215 59.8642 34.8281 55.5737 38.3359 52.4149C41.8437 49.256 46.3338 47.4257 51.0354 47.2384C55.7369 47.051 60.3565 48.5182 64.1011 51.388C67.8457 54.2579 70.4816 58.3513 71.5564 62.9656C72.6311 67.5798 72.0776 72.4271 69.9908 76.675L74.9872 76.5843Z" fill="white"/>
<path d="M61.5278 95.3551C55.2967 97.5313 48.5184 97.523 42.2925 95.3317C36.0666 93.1403 30.7583 88.8945 27.2286 83.2828C23.6989 77.6712 22.1549 71.0229 22.847 64.4164C23.5391 57.8099 26.4267 51.6327 31.0415 46.8868C35.6563 42.1409 41.7275 39.1047 48.2703 38.2706C54.8131 37.4366 61.4438 38.8536 67.0868 42.2919C72.7298 45.7303 77.054 50.9881 79.3582 57.2127C81.6623 63.4372 81.8111 70.2634 79.7804 76.5838H92.4515V31.2424H11.4287V99.2545C11.4287 101.058 12.1401 102.788 13.4063 104.064C14.6725 105.339 16.3899 106.056 18.1806 106.056H58.692C58.692 104.296 59.0988 102.56 59.88 100.986C60.6613 99.4124 61.7957 98.0433 63.1933 96.9874C62.5811 96.5056 62.0227 95.9583 61.5278 95.3551V95.3551Z" fill="white"/>
<path d="M69.9458 103.789H108.207C108.803 103.789 109.376 103.55 109.798 103.125C110.22 102.7 110.457 102.123 110.457 101.522C110.457 100.92 110.22 100.344 109.798 99.9186C109.376 99.4935 108.803 99.2546 108.207 99.2546C65.8721 99.2546 69.9458 99.2546 68.7079 99.2546C67.2656 99.5366 65.9539 100.285 64.9719 101.386C63.7957 102.648 63.1574 104.325 63.1939 106.056C63.1939 107.86 63.9052 109.59 65.1714 110.865C66.4377 112.141 68.155 112.857 69.9458 112.857H108.207C108.803 112.857 109.376 112.618 109.798 112.193C110.22 111.768 110.457 111.191 110.457 110.59C110.457 109.989 110.22 109.412 109.798 108.987C109.376 108.562 108.803 108.323 108.207 108.323H69.9458C69.3489 108.323 68.7764 108.084 68.3543 107.659C67.9322 107.234 67.6951 106.657 67.6951 106.056C67.6951 105.455 67.9322 104.878 68.3543 104.453C68.7764 104.028 69.3489 103.789 69.9458 103.789Z" fill="white"/>
<path d="M92.4515 15.3727C92.4515 13.5689 91.7402 11.839 90.4739 10.5636C89.2077 9.28809 87.4903 8.57153 85.6996 8.57153H18.1806C16.3899 8.57153 14.6725 9.28809 13.4063 10.5636C12.1401 11.839 11.4287 13.5689 11.4287 15.3727V26.7081H92.4515V15.3727ZM22.6819 18.0706C22.6134 18.4175 22.4653 18.7435 22.2494 19.0225C22.0334 19.3014 21.7557 19.5256 21.4384 19.6771C21.121 19.8286 20.7729 19.9032 20.4219 19.895C20.0708 19.8867 19.7265 19.7958 19.4165 19.6295C19.1066 19.4632 18.8396 19.2262 18.6368 18.9374C18.4341 18.6486 18.3012 18.316 18.2489 17.9662C18.1966 17.6164 18.2263 17.2591 18.3356 16.923C18.4449 16.5868 18.6307 16.2811 18.8783 16.0302C19.2191 15.6849 19.6612 15.4593 20.1392 15.3867C20.6172 15.3142 21.1057 15.3986 21.5323 15.6275C21.959 15.8564 22.3012 16.2175 22.5082 16.6575C22.7152 17.0975 22.7761 17.593 22.6819 18.0706V18.0706ZM31.0767 19.2494C30.8669 19.4638 30.6172 19.6344 30.3419 19.7516C30.0666 19.8687 29.7711 19.9301 29.4722 19.9322C29.1733 19.9343 28.877 19.8771 28.6001 19.7638C28.3232 19.6506 28.0711 19.4835 27.8583 19.2721C27.6455 19.0607 27.4761 18.8092 27.3598 18.5319C27.2436 18.2546 27.1826 17.9569 27.1805 17.6558C27.1763 17.0479 27.412 16.4631 27.8358 16.0302C28.2596 15.6033 28.8344 15.3635 29.4338 15.3635C30.0331 15.3635 30.6079 15.6033 31.0317 16.0302C31.4555 16.4571 31.6936 17.0361 31.6936 17.6398C31.6936 18.2435 31.4555 18.8225 31.0317 19.2494H31.0767ZM36.1857 17.6398C36.1857 17.0385 36.4228 16.4619 36.8449 16.0368C37.267 15.6116 37.8394 15.3727 38.4363 15.3727C39.0332 15.3727 39.6057 15.6116 40.0278 16.0368C40.4498 16.4619 40.6869 17.0385 40.6869 17.6398C40.6869 18.2411 40.4498 18.8177 40.0278 19.2429C39.6057 19.668 39.0332 19.9069 38.4363 19.9069C37.8394 19.9069 37.267 19.668 36.8449 19.2429C36.4228 18.8177 36.1857 18.2411 36.1857 17.6398ZM83.449 19.9069H60.9426C60.3457 19.9069 59.7733 19.668 59.3512 19.2429C58.9291 18.8177 58.692 18.2411 58.692 17.6398C58.692 17.0385 58.9291 16.4619 59.3512 16.0368C59.7733 15.6116 60.3457 15.3727 60.9426 15.3727H83.449C84.0459 15.3727 84.6183 15.6116 85.0404 16.0368C85.4625 16.4619 85.6996 17.0385 85.6996 17.6398C85.6996 18.2411 85.4625 18.8177 85.0404 19.2429C84.6183 19.668 84.0459 19.9069 83.449 19.9069Z" fill="white"/>
<path d="M108.205 90.1859H69.9446C69.3477 90.1859 68.7753 89.9471 68.3532 89.5219C67.9311 89.0968 67.694 88.5201 67.694 87.9189C67.694 87.3176 67.9311 86.741 68.3532 86.3158C68.7753 85.8907 69.3477 85.6518 69.9446 85.6518H108.205C108.802 85.6518 109.375 85.413 109.797 84.9878C110.219 84.5626 110.456 83.986 110.456 83.3847C110.456 82.7835 110.219 82.2068 109.797 81.7817C109.375 81.3565 108.802 81.1177 108.205 81.1177H69.9446C68.5951 81.1355 67.2818 81.5603 66.1743 82.3373C65.0667 83.1144 64.2158 84.2079 63.7313 85.4768C63.2468 86.7457 63.1509 88.1318 63.4561 89.4561C63.7613 90.7804 64.4535 91.9822 65.4434 92.9064C67.9416 95.4229 67.3114 94.7201 108.205 94.7201C108.802 94.7201 109.375 94.4812 109.797 94.0561C110.219 93.6309 110.456 93.0543 110.456 92.453C110.456 91.8518 110.219 91.2751 109.797 90.85C109.375 90.4248 108.802 90.1859 108.205 90.1859Z" fill="white"/>
</svg>
