<svg width="36" height="36" viewBox="0 0 36 36" fill="none" xmlns="http://www.w3.org/2000/svg">
<path d="M0.0518804 14.3902C0.699071 22.8576 12.299 30.6599 17.9844 33.1992C22.9732 30.57 34.771 24.1655 35.8496 14.3902C36.8659 5.18049 30.1867 3.5411 27.962 3.06436C23.2429 2.0531 19.4001 4.79471 17.9844 6.36774C14.1013 2.53853 9.57992 2.56999 7.80464 3.06437C4.97318 3.51381 -0.595311 5.92282 0.0518804 14.3902Z" fill="white"/>
<path fill-rule="evenodd" clip-rule="evenodd" d="M0.0518804 14.3902C0.661606 22.3675 10.9927 29.7543 16.9409 32.7062C15.9582 31.0515 15.3075 29.3347 15.3075 27.9107L15.3073 27.8455C15.3018 26.8306 15.2779 22.4113 23.8199 14.9384C23.8199 14.9384 15.6862 19.7534 14.5948 25.3137C14.5891 25.2563 14.5827 25.1943 14.5758 25.128C14.3544 22.9892 13.668 16.3597 19.6233 13.1534C20.1027 12.8953 21.2745 12.4814 22.7157 11.9722C26.2392 10.7275 31.3735 8.91381 31.9413 7.41628C31.9413 7.41628 29.5201 19.8005 19.6233 25.9205C18.7583 26.4554 15.4725 29.1074 18.6491 32.8472C23.9472 30.0249 34.8164 23.7541 35.8496 14.3902C36.8659 5.18049 30.1867 3.5411 27.962 3.06436C23.2429 2.0531 19.4001 4.79471 17.9844 6.36774C14.1013 2.53853 9.57992 2.56999 7.80464 3.06437C4.97318 3.51381 -0.595311 5.92282 0.0518804 14.3902ZM13.2488 25.1748C0.992936 17.5658 7.18414 9.42541 7.18414 9.42541C7.29494 10.9688 9.44057 12.3094 11.3021 13.2077C14.0141 14.5163 13.3412 17.1953 12.7819 19.4225C12.5384 20.392 12.3165 21.2759 12.4045 21.9238C10.0293 19.8632 9.07636 17.5328 9.07636 17.5328C9.80086 20.8172 12.1049 23.668 12.9741 24.7435C13.267 25.1059 13.397 25.2668 13.2488 25.1748Z" fill="url(#paint0_linear_39983_286125)"/>
<defs>
<linearGradient id="paint0_linear_39983_286125" x1="19.2809" y1="2.83203" x2="15.5526" y2="31.8439" gradientUnits="userSpaceOnUse">
<stop stop-color="#B3D965"/>
<stop offset="0.759137" stop-color="#07945E"/>
<stop offset="1" stop-color="#137053"/>
</linearGradient>
</defs>
</svg>
