<svg width="120" height="120" viewBox="0 0 120 120" fill="none" xmlns="http://www.w3.org/2000/svg">
<g clip-path="url(#clip0_723_4564)">
<path d="M6.9209 98.9463L113.999 59.9732L116.782 67.6202C117.16 68.6581 116.624 69.8058 115.587 70.1836L12.2676 107.789C11.2296 108.166 10.082 107.631 9.70418 106.593L6.9209 98.9463Z" fill="#F789CA"/>
<path d="M111.38 54.7115L4.30198 93.6845C4.30198 93.6845 -2.44098 75.1584 33.6132 60.637C69.6675 46.1157 62.9245 27.5895 62.9245 27.5895L100.141 23.8346L111.38 54.7115Z" fill="white"/>
<ellipse cx="88.9491" cy="46.0928" rx="7.7693" ry="7.88604" transform="rotate(-20 88.9491 46.0928)" fill="#F789CA"/>
<rect width="5.1991" height="15.714" transform="matrix(0.637808 -0.770195 0.761893 0.647703 29.3027 59.135)" fill="#F789CA"/>
<rect width="5.1991" height="15.714" transform="matrix(0.637808 -0.770195 0.761893 0.647703 39.2031 53.0435)" fill="#F789CA"/>
<rect width="5.1991" height="15.714" transform="matrix(0.637808 -0.770195 0.761893 0.647703 47.9512 47.0256)" fill="#F789CA"/>
</g>
<defs>
<clipPath id="clip0_723_4564">
<rect width="120" height="120" fill="white"/>
</clipPath>
</defs>
</svg>
